<?xml version="1.0" encoding="UTF-8" standalone="no"?>
<svg
   xmlns:dc="http://purl.org/dc/elements/1.1/"
   xmlns:cc="http://creativecommons.org/ns#"
   xmlns:rdf="http://www.w3.org/1999/02/22-rdf-syntax-ns#"
   xmlns:svg="http://www.w3.org/2000/svg"
   xmlns="http://www.w3.org/2000/svg"
   id="svg1042"
   version="1.1"
   viewBox="0 0 191.72202 67.456792"
   height="254.9548"
   width="724.61865">
  <defs
     id="defs1036">
    <clipPath
       id="clipPath869"
       clipPathUnits="userSpaceOnUse">
      <rect
         transform="scale(-1,1)"
         y="-27.719269"
         x="-7.1353126"
         height="79.379051"
         width="44.043446"
         id="rect871"
         style="opacity:1;fill:#ffffff;fill-opacity:1;stroke:none;stroke-width:3.99999976;stroke-linecap:butt;stroke-linejoin:miter;stroke-miterlimit:4;stroke-dasharray:none;stroke-dashoffset:0;stroke-opacity:1" />
    </clipPath>
    <clipPath
       id="clipPath873"
       clipPathUnits="userSpaceOnUse">
      <rect
         transform="scale(-1,1)"
         y="-27.719269"
         x="-7.1353126"
         height="79.379051"
         width="44.043446"
         id="rect875"
         style="opacity:1;fill:#ffffff;fill-opacity:1;stroke:none;stroke-width:3.99999976;stroke-linecap:butt;stroke-linejoin:miter;stroke-miterlimit:4;stroke-dasharray:none;stroke-dashoffset:0;stroke-opacity:1" />
    </clipPath>
    <clipPath
       id="clipPath877"
       clipPathUnits="userSpaceOnUse">
      <rect
         transform="scale(-1,1)"
         y="-27.719269"
         x="-7.1353126"
         height="79.379051"
         width="44.043446"
         id="rect879"
         style="opacity:1;fill:#ffffff;fill-opacity:1;stroke:none;stroke-width:3.99999976;stroke-linecap:butt;stroke-linejoin:miter;stroke-miterlimit:4;stroke-dasharray:none;stroke-dashoffset:0;stroke-opacity:1" />
    </clipPath>
    <clipPath
       id="clipPath881"
       clipPathUnits="userSpaceOnUse">
      <rect
         transform="scale(-1)"
         y="-27.719269"
         x="-7.1353126"
         height="79.379051"
         width="44.043446"
         id="rect883"
         style="opacity:1;fill:#ffffff;fill-opacity:1;stroke:none;stroke-width:3.99999976;stroke-linecap:butt;stroke-linejoin:miter;stroke-miterlimit:4;stroke-dasharray:none;stroke-dashoffset:0;stroke-opacity:1" />
    </clipPath>
    <clipPath
       id="clipPath885"
       clipPathUnits="userSpaceOnUse">
      <rect
         transform="rotate(-90)"
         y="-27.719269"
         x="-7.1353126"
         height="79.379051"
         width="44.043446"
         id="rect887"
         style="opacity:1;fill:#ffffff;fill-opacity:1;stroke:none;stroke-width:3.99999976;stroke-linecap:butt;stroke-linejoin:miter;stroke-miterlimit:4;stroke-dasharray:none;stroke-dashoffset:0;stroke-opacity:1" />
    </clipPath>
    <clipPath
       id="clipPath889"
       clipPathUnits="userSpaceOnUse">
      <rect
         y="309.61905"
         x="445.92612"
         height="89.512772"
         width="50.081417"
         id="rect891"
         style="opacity:1;fill:#ffffff;fill-opacity:1;stroke:none;stroke-width:3.99999976;stroke-linecap:butt;stroke-linejoin:miter;stroke-miterlimit:4;stroke-dasharray:none;stroke-dashoffset:0;stroke-opacity:1" />
    </clipPath>
    <clipPath
       id="clipPath893"
       clipPathUnits="userSpaceOnUse">
      <rect
         transform="matrix(0,-1,-1,0,0,0)"
         y="-27.719269"
         x="-7.1353126"
         height="79.379051"
         width="44.043446"
         id="rect895"
         style="opacity:1;fill:#ffffff;fill-opacity:1;stroke:none;stroke-width:3.99999976;stroke-linecap:butt;stroke-linejoin:miter;stroke-miterlimit:4;stroke-dasharray:none;stroke-dashoffset:0;stroke-opacity:1" />
    </clipPath>
  </defs>
  <metadata
     id="metadata1039">
    <rdf:RDF>
      <cc:Work
         rdf:about="">
        <dc:format>image/svg+xml</dc:format>
        <dc:type
           rdf:resource="http://purl.org/dc/dcmitype/StillImage" />
        <dc:title></dc:title>
      </cc:Work>
    </rdf:RDF>
  </metadata>
  <g
     transform="translate(4.8768473,18.902814)"
     id="layer1">
    <g
       id="flowRoot957-3-0-8-3-0"
       style="font-style:normal;font-variant:normal;font-weight:normal;font-stretch:normal;font-size:48px;line-height:1.10000002;font-family:'Liberation Sans';-inkscape-font-specification:'Liberation Sans';font-variant-ligatures:normal;font-variant-caps:normal;font-variant-numeric:normal;font-feature-settings:normal;text-align:start;letter-spacing:1px;word-spacing:0px;writing-mode:lr-tb;text-anchor:start;fill:#000000;fill-opacity:1;stroke:none;stroke-width:0.35057047"
       transform="matrix(0.75158656,0,0,0.75787094,-334.31543,-254.89065)"
       aria-label="   uicklens">
      <path
         id="path1168"
         style="font-style:normal;font-variant:normal;font-weight:normal;font-stretch:normal;font-family:'Quicksand Medium';-inkscape-font-specification:'Quicksand Medium, ';letter-spacing:0.43274543px;fill:#000000;fill-opacity:1;stroke-width:0.35057047"
         d="m 534.36374,342.16753 q 1.008,0 1.632,0.672 0.672,0.672 0.672,1.632 v 12.768 q 0,4.992 -2.784,7.776 -2.736,2.736 -7.776,2.736 -4.992,0 -7.728,-2.736 -2.736,-2.784 -2.736,-7.776 v -12.768 q 0,-0.96 0.624,-1.632 0.672,-0.672 1.632,-0.672 1.008,0 1.632,0.672 0.672,0.672 0.672,1.632 v 12.768 q 0,6.288 5.904,6.288 2.928,0 4.464,-1.584 1.536,-1.584 1.536,-4.704 v -12.768 q 0,-0.96 0.624,-1.632 0.672,-0.672 1.632,-0.672 z" />
      <path
         id="path1170"
         style="font-style:normal;font-variant:normal;font-weight:normal;font-stretch:normal;font-family:'Quicksand Medium';-inkscape-font-specification:'Quicksand Medium, ';letter-spacing:0.43274543px;fill:#000000;fill-opacity:1;stroke-width:0.35057047"
         d="m 548.24023,365.01553 q 0,0.96 -0.672,1.632 -0.624,0.672 -1.632,0.672 -0.96,0 -1.632,-0.672 -0.624,-0.672 -0.624,-1.632 v -20.784 q 0,-0.96 0.624,-1.632 0.672,-0.672 1.632,-0.672 1.008,0 1.632,0.672 0.672,0.672 0.672,1.632 z m -2.304,-26.256 q -1.392,0 -2.016,-0.48 -0.576,-0.528 -0.576,-1.632 v -0.768 q 0,-1.152 0.624,-1.632 0.672,-0.48 2.016,-0.48 1.344,0 1.92,0.528 0.624,0.48 0.624,1.584 v 0.768 q 0,1.152 -0.624,1.632 -0.624,0.48 -1.968,0.48 z" />
      <path
         id="path1172"
         style="font-style:normal;font-variant:normal;font-weight:normal;font-stretch:normal;font-family:'Quicksand Medium';-inkscape-font-specification:'Quicksand Medium, ';letter-spacing:0.43274543px;fill:#000000;fill-opacity:1;stroke-width:0.35057047"
         d="m 566.17198,341.59153 q 3.792,0 6.288,1.2 2.544,1.2 2.544,3.072 0,0.816 -0.528,1.488 -0.528,0.624 -1.344,0.624 -0.624,0 -1.008,-0.192 -0.336,-0.192 -0.96,-0.624 -0.288,-0.288 -0.912,-0.672 -0.576,-0.288 -1.632,-0.48 -1.056,-0.192 -1.92,-0.192 -2.496,0 -4.416,1.152 -1.92,1.152 -2.976,3.216 -1.056,2.016 -1.056,4.512 0,2.544 1.008,4.56 1.056,2.016 2.928,3.168 1.872,1.152 4.272,1.152 2.496,0 4.032,-0.768 0.336,-0.192 0.912,-0.624 0.48,-0.384 0.816,-0.576 0.384,-0.192 0.912,-0.192 0.96,0 1.488,0.624 0.576,0.576 0.576,1.536 0,1.008 -1.296,2.016 -1.248,0.96 -3.408,1.584 -2.112,0.624 -4.56,0.624 -3.648,0 -6.432,-1.68 -2.784,-1.728 -4.32,-4.704 -1.488,-3.024 -1.488,-6.72 0,-3.696 1.584,-6.672 1.584,-3.024 4.416,-4.704 2.832,-1.728 6.48,-1.728 z" />
      <path
         id="path1174"
         style="font-style:normal;font-variant:normal;font-weight:normal;font-stretch:normal;font-family:'Quicksand Medium';-inkscape-font-specification:'Quicksand Medium, ';letter-spacing:0.43274543px;fill:#000000;fill-opacity:1;stroke-width:0.35057047"
         d="m 600.86097,363.33553 q 0.72,0.768 0.72,1.68 0,0.96 -0.768,1.632 -0.72,0.624 -1.536,0.624 -1.056,0 -1.68,-0.768 l -9.456,-10.032 -2.88,2.592 v 5.952 q 0,0.96 -0.672,1.632 -0.624,0.672 -1.584,0.672 -1.008,0 -1.68,-0.672 -0.624,-0.672 -0.624,-1.632 v -30.912 q 0,-0.96 0.624,-1.632 0.672,-0.672 1.68,-0.672 0.96,0 1.584,0.672 0.672,0.672 0.672,1.632 v 19.488 l 11.76,-10.8 q 0.816,-0.72 1.68,-0.72 0.816,0 1.488,0.72 0.672,0.672 0.672,1.44 0,0.96 -0.912,1.728 l -8.304,7.392 z" />
      <path
         id="path1176"
         style="font-style:normal;font-variant:normal;font-weight:normal;font-stretch:normal;font-family:'Quicksand Medium';-inkscape-font-specification:'Quicksand Medium, ';letter-spacing:0.43274543px;fill:#000000;fill-opacity:1;stroke-width:0.35057047"
         d="m 612.03747,365.01553 q 0,0.96 -0.672,1.632 -0.672,0.672 -1.632,0.672 -0.96,0 -1.632,-0.672 -0.624,-0.672 -0.624,-1.632 v -30.912 q 0,-0.96 0.672,-1.632 0.672,-0.672 1.632,-0.672 0.96,0 1.584,0.672 0.672,0.672 0.672,1.632 z" />
      <path
         id="path1178"
         style="font-style:normal;font-variant:normal;font-weight:normal;font-stretch:normal;font-family:'Quicksand Medium';-inkscape-font-specification:'Quicksand Medium, ';letter-spacing:0.43274543px;fill:#000000;fill-opacity:1;stroke-width:0.35057047"
         d="m 641.32496,353.78353 q -0.048,0.864 -0.72,1.488 -0.672,0.576 -1.584,0.576 h -16.896 q 0.336,3.504 2.64,5.616 2.352,2.112 5.712,2.112 2.304,0 3.744,-0.672 1.44,-0.672 2.544,-1.728 0.72,-0.432 1.392,-0.432 0.816,0 1.344,0.576 0.576,0.576 0.576,1.344 0,1.008 -0.96,1.824 -1.392,1.392 -3.696,2.352 -2.304,0.96 -4.704,0.96 -3.888,0 -6.864,-1.632 -2.928,-1.632 -4.56,-4.56 -1.584,-2.928 -1.584,-6.624 0,-4.032 1.632,-7.056 1.68,-3.072 4.368,-4.704 2.736,-1.632 5.856,-1.632 3.072,0 5.76,1.584 2.688,1.584 4.32,4.368 1.632,2.784 1.68,6.24 z m -11.76,-7.968 q -2.688,0 -4.656,1.536 -1.968,1.488 -2.592,4.656 h 14.16 v -0.384 q -0.24,-2.544 -2.304,-4.176 -2.016,-1.632 -4.608,-1.632 z" />
      <path
         id="path1180"
         style="font-style:normal;font-variant:normal;font-weight:normal;font-stretch:normal;font-family:'Quicksand Medium';-inkscape-font-specification:'Quicksand Medium, ';letter-spacing:0.43274543px;fill:#000000;fill-opacity:1;stroke-width:0.35057047"
         d="m 659.86871,341.59153 q 8.64,0 8.64,10.368 v 13.056 q 0,0.96 -0.672,1.632 -0.624,0.672 -1.632,0.672 -0.96,0 -1.632,-0.672 -0.624,-0.672 -0.624,-1.632 v -13.008 q 0,-2.832 -1.296,-4.512 -1.296,-1.68 -4.224,-1.68 -1.92,0 -3.504,0.864 -1.536,0.816 -2.448,2.256 -0.864,1.392 -0.864,3.072 v 13.008 q 0,0.96 -0.672,1.632 -0.624,0.672 -1.632,0.672 -1.008,0 -1.632,-0.624 -0.624,-0.672 -0.624,-1.68 v -20.544 q 0,-0.96 0.624,-1.632 0.672,-0.672 1.632,-0.672 1.008,0 1.632,0.672 0.672,0.672 0.672,1.632 v 1.68 q 1.248,-1.92 3.456,-3.216 2.256,-1.344 4.8,-1.344 z" />
      <path
         id="path1182"
         style="font-style:normal;font-variant:normal;font-weight:normal;font-stretch:normal;font-family:'Quicksand Medium';-inkscape-font-specification:'Quicksand Medium, ';letter-spacing:0.43274543px;fill:#000000;fill-opacity:1;stroke-width:0.35057047"
         d="m 674.35795,363.38353 q -0.432,-0.672 -0.432,-1.296 0,-0.96 1.008,-1.632 0.48,-0.336 1.104,-0.336 0.864,0 1.584,0.72 1.44,1.632 3.072,2.448 1.68,0.816 3.984,0.816 1.824,-0.048 3.216,-0.816 1.392,-0.816 1.392,-2.592 0,-1.632 -1.44,-2.496 -1.392,-0.864 -4.128,-1.584 -2.688,-0.72 -4.464,-1.488 -1.776,-0.816 -3.024,-2.304 -1.2,-1.536 -1.2,-3.984 0,-2.16 1.2,-3.792 1.248,-1.632 3.264,-2.544 2.064,-0.912 4.464,-0.912 2.304,0 4.56,0.864 2.304,0.864 3.744,2.64 0.576,0.672 0.576,1.392 0,0.768 -0.768,1.488 -0.48,0.432 -1.2,0.432 -0.864,0 -1.392,-0.576 -1.008,-1.152 -2.496,-1.776 -1.44,-0.624 -3.216,-0.624 -1.824,0 -3.12,0.768 -1.248,0.72 -1.248,2.496 0.048,1.68 1.44,2.496 1.44,0.816 4.368,1.584 2.544,0.672 4.224,1.44 1.68,0.768 2.832,2.304 1.152,1.488 1.152,3.936 0,2.256 -1.296,3.936 -1.296,1.632 -3.408,2.544 -2.064,0.864 -4.416,0.864 -3.024,0 -5.616,-1.056 -2.544,-1.056 -4.32,-3.36 z" />
    </g>
    <path
       clip-path="url(#clipPath893)"
       transform="matrix(0,-1,-1,0,0,0)"
       style="opacity:1;fill:none;fill-opacity:1;stroke:#798ee6;stroke-width:4;stroke-linecap:butt;stroke-linejoin:miter;stroke-miterlimit:4;stroke-dasharray:none;stroke-dashoffset:0;stroke-opacity:1"
       id="path827-71-1-6-2-8-0"
       d="M 9.1416658,-40.406814 A 26.764446,26.542511 0 0 1 2.4668019,-8.6691302" />
    <g
       id="flowRoot966"
       style="font-style:normal;font-variant:normal;font-weight:normal;font-stretch:normal;font-size:48px;line-height:1.10000002;font-family:'Liberation Sans';-inkscape-font-specification:'Liberation Sans';font-variant-ligatures:normal;font-variant-caps:normal;font-variant-numeric:normal;font-feature-settings:normal;text-align:start;letter-spacing:1px;word-spacing:0px;writing-mode:lr-tb;text-anchor:start;fill:#000000;fill-opacity:1;stroke:none;stroke-width:0.29960543"
       clip-path="url(#clipPath889)"
       transform="matrix(0.87943687,0,0,0.88679029,-399.29918,-302.28644)"
       aria-label="q ">
      <path
         id="path1165"
         style="font-style:normal;font-variant:normal;font-weight:normal;font-stretch:normal;font-family:'Quicksand Medium';-inkscape-font-specification:'Quicksand Medium, ';fill:#000000;fill-opacity:1;stroke-width:0.29960543"
         d="m 494.808,342.07153 q 1.008,0 1.632,0.672 0.672,0.624 0.672,1.68 v 30.192 q 0,0.96 -0.672,1.632 -0.624,0.672 -1.632,0.672 -1.008,0 -1.632,-0.672 -0.624,-0.624 -0.624,-1.632 v -10.944 q -1.2,1.728 -3.408,2.928 -2.16,1.2 -4.656,1.2 -3.264,0 -5.904,-1.68 -2.64,-1.68 -4.176,-4.656 -1.536,-3.024 -1.536,-6.768 0,-3.744 1.488,-6.72 1.536,-3.024 4.176,-4.704 2.64,-1.68 5.808,-1.68 2.544,0 4.704,1.056 2.16,1.056 3.504,2.736 v -0.96 q 0,-1.008 0.624,-1.68 0.624,-0.672 1.632,-0.672 z m -9.792,21.504 q 2.256,0 3.984,-1.152 1.776,-1.152 2.736,-3.168 1.008,-2.016 1.008,-4.56 0,-2.496 -1.008,-4.512 -0.96,-2.064 -2.736,-3.216 -1.728,-1.152 -3.984,-1.152 -2.256,0 -4.032,1.152 -1.728,1.152 -2.736,3.216 -0.96,2.016 -0.96,4.512 0,2.544 0.96,4.56 1.008,2.016 2.736,3.168 1.776,1.152 4.032,1.152 z" />
    </g>
    <path
       clip-path="url(#clipPath885)"
       transform="rotate(90)"
       style="opacity:1;fill:none;fill-opacity:1;stroke:#798ee6;stroke-width:4;stroke-linecap:butt;stroke-linejoin:miter;stroke-miterlimit:4;stroke-dasharray:none;stroke-dashoffset:0;stroke-opacity:1"
       id="path827-71-1-6-2-8"
       d="M 38.963916,-40.410183 A 26.764444,26.542509 0 0 1 32.289053,-8.6725019" />
    <path
       clip-path="url(#clipPath881)"
       transform="scale(-1)"
       style="opacity:1;fill:none;fill-opacity:1;stroke:#798ee6;stroke-width:4;stroke-linecap:butt;stroke-linejoin:miter;stroke-miterlimit:4;stroke-dasharray:none;stroke-dashoffset:0;stroke-opacity:1"
       id="path827-7-3-0-7-1-3-77"
       d="m -5.135696,-26.935926 a 26.542509,26.764444 0 0 1 0.064154,23.9828477" />
    <rect
       y="10.525387"
       x="42.94862"
       height="8.0180864"
       width="4.6103992"
       id="rect2430"
       style="opacity:1;fill:#798ee6;fill-opacity:1;stroke:none;stroke-width:4;stroke-linecap:butt;stroke-linejoin:miter;stroke-miterlimit:4;stroke-dasharray:none;stroke-dashoffset:0;stroke-opacity:1" />
    <path
       clip-path="url(#clipPath877)"
       transform="scale(-1,1)"
       style="opacity:0.39899998;fill:none;fill-opacity:1;stroke:#798ee6;stroke-width:3;stroke-linecap:butt;stroke-linejoin:miter;stroke-miterlimit:4;stroke-dasharray:none;stroke-dashoffset:0;stroke-opacity:1"
       id="path827-7-3-0-7-1-3-77-6"
       d="M 2.2560734,6.5658478 A 32.450829,31.699158 0 0 1 1.8122231,24.550456" />
    <path
       clip-path="url(#clipPath873)"
       d="M -9.2483386,40.450294 A 32.450829,31.699158 0 0 1 -31.382189,46.973598"
       id="path2491"
       style="opacity:0.39899998;fill:none;fill-opacity:1;stroke:#798ee6;stroke-width:3;stroke-linecap:butt;stroke-linejoin:miter;stroke-miterlimit:4;stroke-dasharray:none;stroke-dashoffset:0;stroke-opacity:1"
       transform="scale(-1,1)" />
    <path
       clip-path="url(#clipPath869)"
       d="m -31.515535,-17.31288 a 32.450829,31.699158 0 0 1 21.22873,5.762667"
       id="path2493"
       style="opacity:0.39899998;fill:none;fill-opacity:1;stroke:#798ee6;stroke-width:3;stroke-linecap:butt;stroke-linejoin:miter;stroke-miterlimit:4;stroke-dasharray:none;stroke-dashoffset:0;stroke-opacity:1"
       transform="scale(-1,1)" />
  </g>
</svg>
